<svg viewBox="0 0 28 30" fill="none" xmlns="http://www.w3.org/2000/svg">
<path d="M26.387 17.1814L25.8217 16.8557C25.149 16.4689 24.7471 15.7746 24.7471 15C24.7471 14.2254 25.149 13.5311 25.8217 13.1443L26.387 12.8186C27.9302 11.9293 28.4579 9.96643 27.567 8.42786L26.4923 6.57214C25.6036 5.03679 23.6273 4.50964 22.0884 5.39571L21.5231 5.72036C20.8504 6.10821 20.0455 6.10821 19.3738 5.72036C18.7011 5.3325 18.2992 4.63929 18.2992 3.86464V3.21429C18.2992 1.44214 16.8527 0 15.0752 0H12.9259C11.1484 0 9.70192 1.44214 9.70192 3.21429V3.86571C9.70192 4.64036 9.3 5.33357 8.62727 5.72143C7.95453 6.10821 7.15069 6.10929 6.47796 5.72143L5.91269 5.39571C4.37378 4.50964 2.39749 5.03679 1.50768 6.57214L0.433025 8.42786C-0.457863 9.96643 0.0697919 11.9304 1.613 12.8186L2.17934 13.1443C2.85207 13.5311 3.25399 14.2254 3.25399 15C3.25399 15.7746 2.85207 16.4689 2.17934 16.8557L1.61407 17.1814C0.0708665 18.0696 -0.456789 20.0336 0.4341 21.5721L1.50875 23.4279C2.39857 24.9632 4.37486 25.4904 5.91269 24.6043L6.47796 24.2796C7.15069 23.8907 7.95453 23.8929 8.62727 24.2796C9.3 24.6675 9.70192 25.3607 9.70192 26.1354V26.7857C9.70192 28.5579 11.1484 30 12.9259 30H15.0752C16.8527 30 18.2992 28.5579 18.2992 26.7857V26.1343C18.2992 25.3596 18.7011 24.6664 19.3738 24.2786C20.0455 23.8918 20.8504 23.8907 21.5231 24.2786L22.0884 24.6043C23.6273 25.4893 25.6036 24.9621 26.4923 23.4279L27.567 21.5721C28.4579 20.0336 27.9302 18.0696 26.387 17.1814ZM14.0005 20.3571C11.0377 20.3571 8.62727 17.9539 8.62727 15C8.62727 12.0461 11.0377 9.64286 14.0005 9.64286C16.9634 9.64286 19.3738 12.0461 19.3738 15C19.3738 17.9539 16.9634 20.3571 14.0005 20.3571Z" fill="#FFF"/>
</svg>
