<?xml version="1.0" encoding="UTF-8" standalone="no"?>
<!-- Created with Inkscape (http://www.inkscape.org/) -->

<svg
   xmlns:dc="http://purl.org/dc/elements/1.1/"
   xmlns:cc="http://creativecommons.org/ns#"
   xmlns:rdf="http://www.w3.org/1999/02/22-rdf-syntax-ns#"
   xmlns:svg="http://www.w3.org/2000/svg"
   xmlns="http://www.w3.org/2000/svg"
   xmlns:sodipodi="http://sodipodi.sourceforge.net/DTD/sodipodi-0.dtd"
   xmlns:inkscape="http://www.inkscape.org/namespaces/inkscape"
   width="8.5422993mm"
   height="10.558459mm"
   viewBox="0 0 8.5422999 10.558458"
   version="1.1"
   id="svg5889"
   inkscape:version="0.92.3 (2405546, 2018-03-11)"
   sodipodi:docname="aguacate-fruit.svg">
  <defs
     id="defs5883" />
  <sodipodi:namedview
     id="base"
     pagecolor="#ffffff"
     bordercolor="#666666"
     borderopacity="1.0"
     inkscape:pageopacity="0.0"
     inkscape:pageshadow="2"
     inkscape:zoom="3.06"
     inkscape:cx="88.963317"
     inkscape:cy="17.157672"
     inkscape:document-units="mm"
     inkscape:current-layer="layer1"
     showgrid="false"
     fit-margin-top="1"
     fit-margin-bottom="1"
     fit-margin-right="1"
     fit-margin-left="1"
     inkscape:window-width="1853"
     inkscape:window-height="1025"
     inkscape:window-x="67"
     inkscape:window-y="27"
     inkscape:window-maximized="1" />
  <metadata
     id="metadata5886">
    <rdf:RDF>
      <cc:Work
         rdf:about="">
        <dc:format>image/svg+xml</dc:format>
        <dc:type
           rdf:resource="http://purl.org/dc/dcmitype/StillImage" />
        <dc:title></dc:title>
      </cc:Work>
    </rdf:RDF>
  </metadata>
  <g
     inkscape:label="Capa 1"
     inkscape:groupmode="layer"
     id="layer1"
     transform="translate(-82.295124,-115.44382)">
    <g
       transform="matrix(0.35277777,0,0,-0.35277777,-74.711288,229.58971)"
       id="g8975">
      <g
         transform="translate(456.5723,320.7285)"
         id="g444">
        <path
           inkscape:connector-curvature="0"
           id="path446"
           style="fill:#689e42;fill-opacity:1;fill-rule:nonzero;stroke:none"
           d="m 0,0 c 0,0 7.055,-0.126 7.055,-6.406 0,-3.926 2.81,-5.724 2.81,-9.746 0,-3.075 -1.894,-8.108 -8.433,-8.108 h -1.723 z" />
      </g>
      <g
         transform="translate(461.9492,314.3223)"
         id="g448">
        <path
           inkscape:connector-curvature="0"
           id="path450"
           style="fill:#bfc933;fill-opacity:1;fill-rule:nonzero;stroke:none"
           d="m 0,0 c 0,6.406 -5.621,6.406 -5.621,6.406 0,0 -5.623,0 -5.623,-6.406 0,-3.926 -2.813,-5.724 -2.813,-9.746 0,-3.075 1.895,-8.108 8.436,-8.108 6.537,0 8.434,5.033 8.434,8.108 C 2.813,-5.724 0,-3.926 0,0" />
      </g>
      <g
         transform="translate(460.0254,305.8398)"
         id="g452">
        <path
           inkscape:connector-curvature="0"
           id="path454"
           style="fill:#74481e;fill-opacity:1;fill-rule:nonzero;stroke:none"
           d="m 0,0 c -0.064,-2.621 -1.773,-4.71 -3.816,-4.668 -2.043,0.043 -3.645,2.203 -3.58,4.824 0.066,2.621 1.773,4.71 3.816,4.668 C -1.537,4.78 0.066,2.62 0,0" />
      </g>
      <g
         transform="translate(459.0645,306.1855)"
         id="g456">
        <path
           inkscape:connector-curvature="0"
           id="path458"
           style="fill:#8a6227;fill-opacity:1;fill-rule:nonzero;stroke:none"
           d="m 0,0 c -0.25,-2.182 -1.832,-3.815 -3.531,-3.649 -1.701,0.168 -2.877,2.071 -2.627,4.253 0.252,2.182 1.834,3.816 3.535,3.65 C -0.922,4.086 0.254,2.183 0,0" />
      </g>
      <g
         transform="translate(456.916,307.2627)"
         id="g460">
        <path
           inkscape:connector-curvature="0"
           id="path462"
           style="fill:#a9793e;fill-opacity:1;fill-rule:nonzero;stroke:none"
           d="m 0,0 c -0.285,-1.082 -1.262,-1.791 -2.178,-1.584 -0.918,0.207 -1.429,1.251 -1.146,2.333 0.287,1.081 1.263,1.791 2.181,1.584 C -0.225,2.126 0.287,1.083 0,0" />
      </g>
    </g>
  </g>
</svg>
